#!OML:ASF F:\VICON\USERDATA\INSTALL\Justin_Nancy\Justin_Nancy.ASF
:FULLY-SPECIFIED
:DEGREES
434
root 6.49031 17.3908 22.2005 1.38966 36.9878 5.3568
lowerback 6.88596 -0.885102 -3.43905
upperback 0.496206 -1.38835 1.42635
thorax -3.23137 -0.630806 3.54303
lowerneck -16.1864 -2.77162 -9.30181
upperneck 25.5927 -1.96398 2.94386
head 11.1126 -1.38435 2.37413
rclavicle -2.31584e-014 7.95139e-016
rhumerus -37.1768 -17.0679 -74.7065
rradius 29.5617
rwrist 5.40139
rhand -13.1383 13.5953
rfingers 7.12502
rthumb 12.9598 -15.9822
lclavicle -2.31584e-014 7.95139e-016
lhumerus -30.2305 8.66553 83.0322
lradius 27.8176
lwrist -9.88935
lhand -15.8453 22.8855
lfingers 7.12502
lthumb 10.3494 52.6108
rfemur -27.7352 -5.94167 17.5558
rtibia 69.1162
rfoot -4.13649 -4.72974
rtoes 6.87253
lfemur -7.46595 -3.21473 -28.5346
ltibia 27.2503
lfoot -14.218 2.29064
ltoes 6.44107
435
root 6.56134 17.3618 22.2945 1.56041 37.0341 5.5131
lowerback 7.02716 -1.02208 -3.65183
upperback 0.501772 -1.58874 1.50993
thorax -3.27936 -0.725852 3.77249
lowerneck -16.4106 -2.72519 -9.42523
upperneck 25.5579 -1.85232 2.98221
head 11.138 -1.34028 2.42358
rclavicle 3.50358e-014 -1.59028e-015
rhumerus -37.0643 -16.5651 -74.8437
rradius 29.5892
rwrist 5.0283
rhand -12.8787 13.4111
rfingers 7.12502
rthumb 13.2101 -16.1503
lclavicle 3.50358e-014 -1.59028e-015
lhumerus -29.8224 8.88337 82.9917
lradius 28.1316
lwrist -9.63102
lhand -15.3325 24.2905
lfingers 7.12502
lthumb 10.8441 53.9906
rfemur -28.6368 -5.99106 17.5392
rtibia 67.8615
rfoot -4.99859 -4.98179
rtoes 7.05319
lfemur -7.35261 -3.14434 -28.7161
ltibia 27.6797
lfoot -14.8539 2.47407
ltoes 6.69452
436
root 6.62933 17.344 22.3792 1.45135 36.9945 5.1687
lowerback 7.24086 -1.05197 -3.40191
upperback 0.480217 -1.6104 1.6343
thorax -3.42267 -0.73545 3.76954
lowerneck -16.5432 -2.70946 -9.35498
upperneck 25.4335 -1.83819 2.97722
head 11.1146 -1.32542 2.40959
rclavicle -2.6339e-014 5.56597e-015
rhumerus -37.1376 -16.5981 -74.7853
rradius 29.6575
rwrist 5.26466
rhand -12.93 13.6825
rfingers 7.12502
rthumb 13.1606 -15.8822
lclavicle -2.6339e-014 5.56597e-015
lhumerus -29.4248 8.41359 83.1272
lradius 28.5963
lwrist -9.02045
lhand -15.5256 24.762
lfingers 7.12502
lthumb 10.6578 54.4717
rfemur -29.4722 -5.89705 17.9913
rtibia 66.3564
rfoot -5.73 -5.37122
rtoes 6.05031
lfemur -7.23597 -3.08369 -28.457
ltibia 27.9865
lfoot -15.3182 2.61355
ltoes 6.95021
437
root 6.70022 17.3339 22.477 1.46079 36.8949 4.94809
lowerback 7.45452 -1.06229 -3.1435
upperback 0.305658 -1.6115 1.60451
thorax -3.73156 -0.730753 3.60237
lowerneck -16.6645 -2.65885 -9.1437
upperneck 25.5773 -1.81255 2.96833
head 11.1866 -1.29678 2.37638
rclavicle 2.82771e-014 1.19271e-014
rhumerus -37.6476 -16.6837 -74.8323
rradius 29.6893
rwrist 5.75257
rhand -13.6718 14.42
rfingers 7.12502
rthumb 12.4456 -15.1895
lclavicle 2.82771e-014 1.19271e-014
lhumerus -29.3711 7.8174 82.99
lradius 29.1684
lwrist -8.6553
lhand -15.2294 25.3658
lfingers 7.12502
lthumb 10.9435 55.0606
rfemur -30.2055 -5.54362 18.2703
rtibia 64.5217
rfoot -6.23193 -5.60304
rtoes 4.98718
lfemur -6.99569 -3.05062 -28.2761
ltibia 28.1386
lfoot -15.822 2.72534
ltoes 7.09552
438
root 6.7742 17.3278 22.5959 1.59096 36.8992 5.06574
lowerback 7.45926 -1.13304 -3.4051
upperback 0.297001 -1.72524 1.68071
thorax -3.72376 -0.782256 3.84154
lowerneck -16.9318 -2.65034 -9.39877
upperneck 25.6993 -1.75056 3.15439
head 11.2862 -1.27225 2.49808
rclavicle -2.87244e-014 3.97569e-015
rhumerus -37.7922 -16.1583 -74.9848
rradius 29.6565
rwrist 5.68918
rhand -14.1651 14.5965
rfingers 7.12502
rthumb 11.9699 -15.0413
lclavicle -2.87244e-014 3.97569e-015
lhumerus -29.0785 8.11907 82.8064
lradius 29.4241
lwrist -8.89771
lhand -14.9924 25.8093
lfingers 7.12502
lthumb 11.1721 55.4918
rfemur -30.656 -5.20421 18.2304
rtibia 62.3924
rfoot -6.22536 -6.01687
rtoes 3.06038
lfemur -6.48513 -2.90186 -28.3416
ltibia 28.1227
lfoot -16.3169 2.71979
ltoes 6.06411
439
root 6.85004 17.3271 22.7199 1.60463 36.9968 5.17903
lowerback 7.27344 -1.25411 -3.70105
upperback 0.567119 -1.89817 1.78622
thorax -3.3101 -0.8773 4.12375
lowerneck -17.0622 -2.61766 -9.55076
upperneck 25.3002 -1.67828 3.24893
head 11.158 -1.23537 2.5621
rclavicle -1.54058e-014 2.38542e-014
rhumerus -37.449 -16.1313 -74.9961
rradius 29.7798
rwrist 5.40396
rhand -12.83 13.6194
rfingers 7.12502
rthumb 13.257 -15.939
lclavicle -1.54058e-014 2.38542e-014
lhumerus -28.5612 8.0045 82.8014
lradius 29.9332
lwrist -8.59984
lhand -15.2987 25.6163
lfingers 7.12502
lthumb 10.8766 55.3147
rfemur -30.7763 -5.0009 18.1939
rtibia 60.029
rfoot -6.20027 -6.5918
rtoes 2.43166
lfemur -5.78035 -2.74355 -28.4067
ltibia 27.9502
lfoot -16.6232 2.69524
ltoes 4.91519
440
root 6.92628 17.3235 22.8359 1.63014 37.081 5.097
lowerback 7.16802 -1.3349 -3.74493
upperback 0.653541 -2.00089 1.89411
thorax -3.14593 -0.932837 4.26501
lowerneck -16.9688 -2.61095 -9.55554
upperneck 24.8534 -1.66836 3.1965
head 10.9711 -1.23007 2.53782
rclavicle -3.26007e-014 -1.59028e-015
rhumerus -37.4064 -15.9795 -74.999
rradius 29.6067
rwrist 6.04008
rhand -13.3477 14.04
rfingers 7.12502
rthumb 12.758 -15.5502
lclavicle -3.26007e-014 -1.59028e-015
lhumerus -28.3277 7.43617 82.9319
lradius 30.6106
lwrist -7.92837
lhand -15.9649 25.9272
lfingers 7.12502
lthumb 10.234 55.6583
rfemur -30.9289 -4.81513 18.331
rtibia 57.4504
rfoot -6.41309 -7.04879
rtoes 1.83253
lfemur -5.21644 -2.6838 -28.328
ltibia 27.7301
lfoot -16.9644 2.70784
ltoes 4.21744
441
root 6.99743 17.3159 22.9476 1.72442 37.0286 5.10349
lowerback 7.27286 -1.34951 -3.77869
upperback 0.631772 -2.02584 1.91429
thorax -3.2228 -0.942242 4.31184
lowerneck -17.1387 -2.6252 -9.48329
upperneck 24.7799 -1.67274 3.12027
head 10.9757 -1.23303 2.49541
rclavicle -1.08835e-013 1.98785e-014
rhumerus -37.5136 -16.1689 -74.9002
rradius 29.5653
rwrist 6.27961
rhand -13.2672 14.3276
rfingers 7.12502
rthumb 12.8356 -15.2577
lclavicle -1.08835e-013 1.98785e-014
lhumerus -28.1502 6.84518 82.9853
lradius 31.2788
lwrist -7.26951
lhand -16.2647 26.0232
lfingers 7.12502
lthumb 9.94481 55.7683
rfemur -31.0745 -4.38473 18.3316
rtibia 54.691
rfoot -7.05418 -7.71505
rtoes 3.86588
lfemur -4.7071 -2.66625 -28.3269
ltibia 27.5343
lfoot -17.207 2.77566
ltoes 4.65489
442
root 7.06419 17.3128 23.0565 1.66588 36.9245 4.82059
lowerback 7.29998 -1.36168 -3.72368
upperback 0.66965 -2.03126 2.09043
thorax -3.19355 -0.945896 4.46544
lowerneck -17.2541 -2.59523 -9.50301
upperneck 24.5882 -1.58435 3.00926
head 10.9205 -1.20451 2.46748
rclavicle 2.61899e-014 1.98785e-014
rhumerus -37.3555 -15.8995 -74.9209
rradius 29.5979
rwrist 5.67545
rhand -13.2307 14.406
rfingers 7.12502
rthumb 12.8708 -15.1771
lclavicle 2.61899e-014 1.98785e-014
lhumerus -27.7099 6.94995 83.0363
lradius 31.6998
lwrist -7.29403
lhand -16.1198 25.4385
lfingers 7.12502
lthumb 10.0846 55.1768
rfemur -31.1691 -3.79154 18.5849
rtibia 51.7503
rfoot -7.54755 -8.56397
rtoes 6.42398
lfemur -4.28195 -2.68656 -28.0861
ltibia 27.3713
lfoot -17.4442 3.04213
ltoes 3.82286
443
root 7.1349 17.3068 23.1611 1.91853 36.877 4.89776
lowerback 7.13381 -1.4172 -3.93377
upperback 0.767609 -2.11253 2.18581
thorax -2.97921 -0.990907 4.68302
lowerneck -17.6251 -2.5944 -9.55765
upperneck 24.5409 -1.52838 3.00511
head 10.9718 -1.18317 2.48147
rclavicle 1.10425e-013 -2.54444e-014
rhumerus -37.1615 -15.7626 -74.9735
rradius 29.3041
rwrist 6.39512
rhand -14.0585 15.1329
rfingers 7.12502
rthumb 12.0727 -14.4988
lclavicle 1.10425e-013 -2.54444e-014
lhumerus -27.1874 7.20615 82.989
lradius 32.0159
lwrist -7.36253
lhand -15.934 25.0444
lfingers 7.12502
lthumb 10.2638 54.774
rfemur -31.296 -3.32264 18.4307
rtibia 48.7128
rfoot -7.57687 -9.16047
rtoes 8.34921
lfemur -3.89428 -2.70111 -28.1363
ltibia 27.1789
lfoot -17.7287 3.08397
ltoes 3.60526
444
root 7.21018 17.3003 23.2648 2.19324 36.8849 5.09238
lowerback 7.14651 -1.50353 -4.03385
upperback 0.714238 -2.23942 2.10715
thorax -3.02723 -1.05115 4.67046
lowerneck -17.7419 -2.53927 -9.32889
upperneck 24.4682 -1.48007 2.89913
head 10.9597 -1.15154 2.41012
rclavicle 7.95139e-016 3.4191e-014
rhumerus -37.3094 -15.9831 -75.0016
rradius 29.3993
rwrist 6.55138
rhand -13.7237 14.6504
rfingers 7.12502
rthumb 12.3955 -14.9621
lclavicle 7.95139e-016 3.4191e-014
lhumerus -27.2176 6.65776 82.7719
lradius 32.6508
lwrist -6.81031
lhand -16.3076 25.3999
lfingers 7.12502
lthumb 9.90342 55.147
rfemur -31.2057 -2.91223 18.0939
rtibia 45.5984
rfoot -7.29194 -9.41659
rtoes 5.07094
lfemur -3.3722 -2.78265 -28.3125
ltibia 26.8549
lfoot -18.0751 3.31035
ltoes 3.22179
445
root 7.28771 17.2886 23.3726 2.36602 36.9831 5.21095
lowerback 7.297 -1.59437 -4.03494
upperback 0.57844 -2.3701 2.03042
thorax -3.24149 -1.10812 4.6123
lowerneck -17.6053 -2.50759 -9.40364
upperneck 24.3446 -1.49612 3.1413
head 10.8891 -1.1342 2.50738
rclavicle -4.34344e-014 1.66979e-014
rhumerus -37.5742 -15.956 -75.0764
rradius 29.3529
rwrist 6.57645
rhand -13.8564 14.6772
rfingers 7.12502
rthumb 12.2675 -14.9429
lclavicle -4.34344e-014 1.66979e-014
lhumerus -27.3619 6.18324 82.5583
lradius 33.2335
lwrist -6.32747
lhand -16.4519 25.6933
lfingers 7.12502
lthumb 9.76416 55.4469
rfemur -30.8338 -2.69475 17.9061
rtibia 42.4141
rfoot -6.92013 -9.80355
rtoes 3.6254
lfemur -2.77214 -2.66947 -28.38
ltibia 26.4185
lfoot -18.3783 3.44518
ltoes 2.36268
446
root 7.36528 17.2803 23.4945 2.517 37.1652 5.41207
lowerback 7.39304 -1.64472 -4.09599
upperback 0.516367 -2.44988 1.93792
thorax -3.3527 -1.14324 4.56321
lowerneck -17.5399 -2.56295 -9.51313
upperneck 24.2853 -1.59818 3.31908
head 10.8637 -1.16824 2.57504
rclavicle 9.98893e-014 -2.78299e-014
rhumerus -37.7453 -16.1236 -74.9802
rradius 29.7045
rwrist 5.2749
rhand -12.1556 13.3141
rfingers 7.12502
rthumb 13.9071 -16.2009
lclavicle 9.98893e-014 -2.78299e-014
lhumerus -27.4003 5.80648 82.4513
lradius 33.7981
lwrist -5.95199
lhand -16.855 26.4245
lfingers 7.12502
lthumb 9.37525 56.196
rfemur -30.3781 -2.46921 17.617
rtibia 39.1606
rfoot -6.17243 -10.1281
rtoes 3.46714
lfemur -1.94891 -2.69888 -28.4961
ltibia 25.9
lfoot -18.6307 3.26942
ltoes 2.40285
447
root 7.44025 17.2788 23.6184 2.61809 37.206 5.4743
lowerback 7.36569 -1.65627 -4.1597
upperback 0.559 -2.46838 1.95315
thorax -3.2877 -1.1541 4.61451
lowerneck -17.6738 -2.63195 -9.67353
upperneck 24.1835 -1.66545 3.43056
head 10.8597 -1.19786 2.63079
rclavicle -9.14409e-014 -7.95139e-016
rhumerus -37.7421 -16.2338 -74.9045
rradius 29.278
rwrist 6.67037
rhand -13.3262 14.1196
rfingers 7.12502
rthumb 12.7787 -15.4693
lclavicle -9.14409e-014 -7.95139e-016
lhumerus -27.2491 5.42057 82.4614
lradius 34.3772
lwrist -5.62312
lhand -17.0221 26.3748
lfingers 7.12502
lthumb 9.21398 56.1534
rfemur -30.0175 -1.81978 17.2996
rtibia 35.8305
rfoot -5.464 -10.6094
rtoes 7.991
lfemur -1.18277 -2.66681 -28.5173
ltibia 25.3572
lfoot -18.7476 3.2452
ltoes 2.38378
448
root 7.50907 17.2764 23.7289 2.72657 37.0846 5.4636
lowerback 7.34815 -1.64664 -4.31389
upperback 0.654847 -2.46121 2.08681
thorax -3.16658 -1.153 4.83774
lowerneck -18.1425 -2.67861 -9.8516
upperneck 24.2134 -1.62492 3.42148
head 10.9617 -1.19612 2.66252
rclavicle 5.725e-014 -1.66979e-014
rhumerus -37.5456 -16.488 -74.6903
rradius 29.3839
rwrist 6.59884
rhand -12.6917 13.5818
rfingers 7.12502
rthumb 13.3904 -15.9679
lclavicle 5.725e-014 -1.66979e-014
lhumerus -26.811 5.41203 82.5471
lradius 34.6869
lwrist -5.29622
lhand -17.032 25.5187
lfingers 7.12502
lthumb 9.20442 55.2978
rfemur -29.6244 -1.03358 17.082
rtibia 32.4303
rfoot -4.53139 -11.2151
rtoes 13.2854
lfemur -0.554882 -2.56632 -28.5057
ltibia 24.7818
lfoot -18.7764 3.41013
ltoes 1.65103
